<?xml version="1.0" encoding="UTF-8" standalone="no"?>
<!DOCTYPE svg PUBLIC "-//W3C//DTD SVG 1.1//EN"
 "http://www.w3.org/Graphics/SVG/1.1/DTD/svg11.dtd">
<!-- Generated by graphviz version 7.1.0 (20230121.1956)
 -->
<!-- Pages: 1 -->
<svg width="386pt" height="620pt"
 viewBox="0.00 0.00 386.00 620.00" xmlns="http://www.w3.org/2000/svg" xmlns:xlink="http://www.w3.org/1999/xlink">
<g id="graph0" class="graph" transform="scale(1 1) rotate(0) translate(4 616)">
<polygon fill="white" stroke="none" points="-4,4 -4,-616 382,-616 382,4 -4,4"/>
<!-- vn -->
<g id="node1" class="node">
<title>vn</title>
<ellipse fill="none" stroke="black" cx="276" cy="-594" rx="27" ry="18"/>
<text text-anchor="middle" x="276" y="-590.3" font-family="Times,serif" font-size="14.00">vn</text>
</g>
<!-- DD -->
<g id="node2" class="node">
<title>DD</title>
<ellipse fill="none" stroke="black" cx="183" cy="-522" rx="27" ry="18"/>
<text text-anchor="middle" x="183" y="-518.3" font-family="Times,serif" font-size="14.00">DD</text>
</g>
<!-- vn&#45;&#45;DD -->
<g id="edge1" class="edge">
<title>vn&#45;&#45;DD</title>
<path fill="none" stroke="black" d="M258.51,-579.83C241.88,-567.32 217.02,-548.6 200.41,-536.11"/>
</g>
<!-- MV -->
<g id="node4" class="node">
<title>MV</title>
<ellipse fill="none" stroke="black" cx="238" cy="-378" rx="27" ry="18"/>
<text text-anchor="middle" x="238" y="-374.3" font-family="Times,serif" font-size="14.00">MV</text>
</g>
<!-- vn&#45;&#45;MV -->
<g id="edge3" class="edge">
<title>vn&#45;&#45;MV</title>
<path fill="none" stroke="black" d="M272.95,-575.85C265.84,-535.78 248.19,-436.38 241.06,-396.23"/>
</g>
<!-- start -->
<g id="node9" class="node">
<title>start</title>
<ellipse fill="none" stroke="black" cx="285" cy="-306" rx="27" ry="18"/>
<text text-anchor="middle" x="285" y="-302.3" font-family="Times,serif" font-size="14.00">start</text>
</g>
<!-- vn&#45;&#45;start -->
<g id="edge2" class="edge">
<title>vn&#45;&#45;start</title>
<path fill="none" stroke="black" d="M276.55,-575.54C278.16,-524.36 282.86,-375.12 284.46,-324.23"/>
</g>
<!-- ko -->
<g id="node10" class="node">
<title>ko</title>
<ellipse fill="none" stroke="black" cx="285" cy="-234" rx="27" ry="18"/>
<text text-anchor="middle" x="285" y="-230.3" font-family="Times,serif" font-size="14.00">ko</text>
</g>
<!-- vn&#45;&#45;ko -->
<g id="edge4" class="edge">
<title>vn&#45;&#45;ko</title>
<path fill="none" stroke="black" d="M293.77,-580.34C322.99,-557.9 378,-508.06 378,-451 378,-451 378,-451 378,-377 378,-321.89 328.38,-271.52 301.63,-248.38"/>
</g>
<!-- qm -->
<g id="node3" class="node">
<title>qm</title>
<ellipse fill="none" stroke="black" cx="183" cy="-450" rx="27" ry="18"/>
<text text-anchor="middle" x="183" y="-446.3" font-family="Times,serif" font-size="14.00">qm</text>
</g>
<!-- DD&#45;&#45;qm -->
<g id="edge5" class="edge">
<title>DD&#45;&#45;qm</title>
<path fill="none" stroke="black" d="M183,-503.7C183,-492.85 183,-478.92 183,-468.1"/>
</g>
<!-- xy -->
<g id="node5" class="node">
<title>xy</title>
<ellipse fill="none" stroke="black" cx="99" cy="-306" rx="27" ry="18"/>
<text text-anchor="middle" x="99" y="-302.3" font-family="Times,serif" font-size="14.00">xy</text>
</g>
<!-- DD&#45;&#45;xy -->
<g id="edge6" class="edge">
<title>DD&#45;&#45;xy</title>
<path fill="none" stroke="black" d="M170.62,-505.54C162.96,-495.36 153.39,-481.47 147,-468 123.36,-418.2 108.46,-354.18 102.28,-324.08"/>
</g>
<!-- DD&#45;&#45;ko -->
<g id="edge7" class="edge">
<title>DD&#45;&#45;ko</title>
<path fill="none" stroke="black" d="M197.87,-507C228.47,-477 297.54,-402.85 321,-324 325.56,-308.66 325.7,-303.29 321,-288 316.62,-273.75 306.96,-259.9 298.75,-249.93"/>
</g>
<!-- qm&#45;&#45;MV -->
<g id="edge10" class="edge">
<title>qm&#45;&#45;MV</title>
<path fill="none" stroke="black" d="M195.21,-433.46C204.32,-421.86 216.72,-406.08 225.83,-394.49"/>
</g>
<!-- qm&#45;&#45;xy -->
<g id="edge8" class="edge">
<title>qm&#45;&#45;xy</title>
<path fill="none" stroke="black" d="M173.36,-432.71C157.16,-405.32 124.65,-350.36 108.52,-323.1"/>
</g>
<!-- kw -->
<g id="node8" class="node">
<title>kw</title>
<ellipse fill="none" stroke="black" cx="27" cy="-162" rx="27" ry="18"/>
<text text-anchor="middle" x="27" y="-158.3" font-family="Times,serif" font-size="14.00">kw</text>
</g>
<!-- qm&#45;&#45;kw -->
<g id="edge9" class="edge">
<title>qm&#45;&#45;kw</title>
<path fill="none" stroke="black" d="M165.46,-436.23C138.74,-415.76 88.28,-372.9 63,-324 38.14,-275.91 30.36,-211.08 28,-180.43"/>
</g>
<!-- qm&#45;&#45;ko -->
<g id="edge11" class="edge">
<title>qm&#45;&#45;ko</title>
<path fill="none" stroke="black" d="M185.49,-431.62C188.38,-413.45 193.81,-384.25 202,-360 213.33,-326.47 216.2,-317.33 236,-288 245.67,-273.67 259.16,-259.38 269.53,-249.26"/>
</g>
<!-- MV&#45;&#45;xy -->
<g id="edge12" class="edge">
<title>MV&#45;&#45;xy</title>
<path fill="none" stroke="black" d="M216.89,-366.37C190.61,-353.14 146.01,-330.68 119.85,-317.5"/>
</g>
<!-- MV&#45;&#45;start -->
<g id="edge15" class="edge">
<title>MV&#45;&#45;start</title>
<path fill="none" stroke="black" d="M248.67,-361.12C256.36,-349.66 266.7,-334.26 274.38,-322.82"/>
</g>
<!-- MV&#45;&#45;ko -->
<g id="edge14" class="edge">
<title>MV&#45;&#45;ko</title>
<path fill="none" stroke="black" d="M237.76,-359.7C238.05,-341.34 240.06,-311.75 249,-288 254.25,-274.05 263.87,-260.18 271.84,-250.13"/>
</g>
<!-- lj -->
<g id="node11" class="node">
<title>lj</title>
<ellipse fill="none" stroke="black" cx="99" cy="-90" rx="27" ry="18"/>
<text text-anchor="middle" x="99" y="-86.3" font-family="Times,serif" font-size="14.00">lj</text>
</g>
<!-- MV&#45;&#45;lj -->
<g id="edge13" class="edge">
<title>MV&#45;&#45;lj</title>
<path fill="none" stroke="black" d="M231.75,-360.12C217.03,-321.04 178.12,-221.74 135,-144 127.66,-130.77 117.96,-116.64 110.48,-106.3"/>
</g>
<!-- end -->
<g id="node6" class="node">
<title>end</title>
<ellipse fill="none" stroke="black" cx="99" cy="-234" rx="27" ry="18"/>
<text text-anchor="middle" x="99" y="-230.3" font-family="Times,serif" font-size="14.00">end</text>
</g>
<!-- xy&#45;&#45;end -->
<g id="edge16" class="edge">
<title>xy&#45;&#45;end</title>
<path fill="none" stroke="black" d="M99,-287.7C99,-276.85 99,-262.92 99,-252.1"/>
</g>
<!-- KG -->
<g id="node7" class="node">
<title>KG</title>
<ellipse fill="none" stroke="black" cx="99" cy="-162" rx="27" ry="18"/>
<text text-anchor="middle" x="99" y="-158.3" font-family="Times,serif" font-size="14.00">KG</text>
</g>
<!-- end&#45;&#45;KG -->
<g id="edge17" class="edge">
<title>end&#45;&#45;KG</title>
<path fill="none" stroke="black" d="M99,-215.7C99,-204.85 99,-190.92 99,-180.1"/>
</g>
<!-- end&#45;&#45;kw -->
<g id="edge18" class="edge">
<title>end&#45;&#45;kw</title>
<path fill="none" stroke="black" d="M84.08,-218.5C71.72,-206.48 54.25,-189.49 41.9,-177.49"/>
</g>
<!-- KG&#45;&#45;lj -->
<g id="edge19" class="edge">
<title>KG&#45;&#45;lj</title>
<path fill="none" stroke="black" d="M99,-143.7C99,-132.85 99,-118.92 99,-108.1"/>
</g>
<!-- kw&#45;&#45;lj -->
<g id="edge20" class="edge">
<title>kw&#45;&#45;lj</title>
<path fill="none" stroke="black" d="M41.92,-146.5C54.28,-134.48 71.75,-117.49 84.1,-105.49"/>
</g>
<!-- start&#45;&#45;ko -->
<g id="edge21" class="edge">
<title>start&#45;&#45;ko</title>
<path fill="none" stroke="black" d="M285,-287.7C285,-276.85 285,-262.92 285,-252.1"/>
</g>
<!-- kh -->
<g id="node12" class="node">
<title>kh</title>
<ellipse fill="none" stroke="black" cx="63" cy="-18" rx="27" ry="18"/>
<text text-anchor="middle" x="63" y="-14.3" font-family="Times,serif" font-size="14.00">kh</text>
</g>
<!-- lj&#45;&#45;kh -->
<g id="edge22" class="edge">
<title>lj&#45;&#45;kh</title>
<path fill="none" stroke="black" d="M90.65,-72.76C84.83,-61.46 77.11,-46.44 71.3,-35.15"/>
</g>
<!-- VH -->
<g id="node13" class="node">
<title>VH</title>
<ellipse fill="none" stroke="black" cx="135" cy="-18" rx="27" ry="18"/>
<text text-anchor="middle" x="135" y="-14.3" font-family="Times,serif" font-size="14.00">VH</text>
</g>
<!-- lj&#45;&#45;VH -->
<g id="edge23" class="edge">
<title>lj&#45;&#45;VH</title>
<path fill="none" stroke="black" d="M107.35,-72.76C113.17,-61.46 120.89,-46.44 126.7,-35.15"/>
</g>
</g>
</svg>
