<?xml version="1.0" encoding="UTF-8" standalone="no"?>
<!DOCTYPE svg PUBLIC "-//W3C//DTD SVG 1.1//EN"
 "http://www.w3.org/Graphics/SVG/1.1/DTD/svg11.dtd">
<!-- Generated by graphviz version 7.1.0 (20230121.1956)
 -->
<!-- Pages: 1 -->
<svg width="331pt" height="476pt"
 viewBox="0.00 0.00 331.27 476.00" xmlns="http://www.w3.org/2000/svg" xmlns:xlink="http://www.w3.org/1999/xlink">
<g id="graph0" class="graph" transform="scale(1 1) rotate(0) translate(4 472)">
<polygon fill="white" stroke="none" points="-4,4 -4,-472 327.27,-472 327.27,4 -4,4"/>
<!-- fs -->
<g id="node1" class="node">
<title>fs</title>
<ellipse fill="none" stroke="black" cx="248" cy="-450" rx="27" ry="18"/>
<text text-anchor="middle" x="248" y="-446.3" font-family="Times,serif" font-size="14.00">fs</text>
</g>
<!-- end -->
<g id="node2" class="node">
<title>end</title>
<ellipse fill="none" stroke="black" cx="27" cy="-234" rx="27" ry="18"/>
<text text-anchor="middle" x="27" y="-230.3" font-family="Times,serif" font-size="14.00">end</text>
</g>
<!-- fs&#45;&#45;end -->
<g id="edge1" class="edge">
<title>fs&#45;&#45;end</title>
<path fill="none" stroke="black" d="M225.66,-439.39C187.7,-421.94 110.6,-381.46 68,-324 51.18,-301.31 38.94,-270.63 32.4,-251.85"/>
</g>
<!-- he -->
<g id="node3" class="node">
<title>he</title>
<ellipse fill="none" stroke="black" cx="185" cy="-378" rx="27" ry="18"/>
<text text-anchor="middle" x="185" y="-374.3" font-family="Times,serif" font-size="14.00">he</text>
</g>
<!-- fs&#45;&#45;he -->
<g id="edge2" class="edge">
<title>fs&#45;&#45;he</title>
<path fill="none" stroke="black" d="M234.64,-434.15C223.95,-422.28 209.03,-405.7 198.34,-393.82"/>
</g>
<!-- DX -->
<g id="node4" class="node">
<title>DX</title>
<ellipse fill="none" stroke="black" cx="285" cy="-306" rx="27" ry="18"/>
<text text-anchor="middle" x="285" y="-302.3" font-family="Times,serif" font-size="14.00">DX</text>
</g>
<!-- fs&#45;&#45;DX -->
<g id="edge3" class="edge">
<title>fs&#45;&#45;DX</title>
<path fill="none" stroke="black" d="M252.46,-431.87C259.57,-404.58 273.4,-351.52 280.52,-324.19"/>
</g>
<!-- pj -->
<g id="node6" class="node">
<title>pj</title>
<ellipse fill="none" stroke="black" cx="185" cy="-162" rx="27" ry="18"/>
<text text-anchor="middle" x="185" y="-158.3" font-family="Times,serif" font-size="14.00">pj</text>
</g>
<!-- fs&#45;&#45;pj -->
<g id="edge4" class="edge">
<title>fs&#45;&#45;pj</title>
<path fill="none" stroke="black" d="M262.21,-434.2C286.88,-406.67 333.83,-345.2 321,-288 313.26,-253.47 311.54,-241.49 287,-216 265.27,-193.43 231.83,-178.61 209.22,-170.52"/>
</g>
<!-- zg -->
<g id="node7" class="node">
<title>zg</title>
<ellipse fill="none" stroke="black" cx="65" cy="-90" rx="27" ry="18"/>
<text text-anchor="middle" x="65" y="-86.3" font-family="Times,serif" font-size="14.00">zg</text>
</g>
<!-- end&#45;&#45;zg -->
<g id="edge5" class="edge">
<title>end&#45;&#45;zg</title>
<path fill="none" stroke="black" d="M31.58,-215.87C38.89,-188.58 53.09,-135.52 60.4,-108.19"/>
</g>
<!-- he&#45;&#45;DX -->
<g id="edge6" class="edge">
<title>he&#45;&#45;DX</title>
<path fill="none" stroke="black" d="M202.88,-364.49C220.97,-351.82 248.78,-332.35 266.94,-319.64"/>
</g>
<!-- he&#45;&#45;pj -->
<g id="edge7" class="edge">
<title>he&#45;&#45;pj</title>
<path fill="none" stroke="black" d="M181.75,-359.89C179.95,-349.54 177.91,-336.06 177,-324 173.08,-271.81 179.16,-209.96 182.72,-180.41"/>
</g>
<!-- he&#45;&#45;zg -->
<g id="edge10" class="edge">
<title>he&#45;&#45;zg</title>
<path fill="none" stroke="black" d="M162.17,-367.77C143.98,-359.19 119.42,-344.62 106,-324 60.74,-254.47 61.38,-149.6 63.66,-108.45"/>
</g>
<!-- RW -->
<g id="node9" class="node">
<title>RW</title>
<ellipse fill="none" stroke="black" cx="161" cy="-18" rx="27" ry="18"/>
<text text-anchor="middle" x="161" y="-14.3" font-family="Times,serif" font-size="14.00">RW</text>
</g>
<!-- he&#45;&#45;RW -->
<g id="edge8" class="edge">
<title>he&#45;&#45;RW</title>
<path fill="none" stroke="black" d="M172.77,-361.87C153.95,-336.98 120,-285.16 120,-235 120,-235 120,-235 120,-161 120,-114.04 140.95,-61.66 152.9,-35.6"/>
</g>
<!-- WI -->
<g id="node10" class="node">
<title>WI</title>
<ellipse fill="none" stroke="black" cx="213" cy="-306" rx="27" ry="18"/>
<text text-anchor="middle" x="213" y="-302.3" font-family="Times,serif" font-size="14.00">WI</text>
</g>
<!-- he&#45;&#45;WI -->
<g id="edge9" class="edge">
<title>he&#45;&#45;WI</title>
<path fill="none" stroke="black" d="M191.64,-360.41C196.1,-349.25 201.96,-334.6 206.41,-323.47"/>
</g>
<!-- start -->
<g id="node5" class="node">
<title>start</title>
<ellipse fill="none" stroke="black" cx="251" cy="-234" rx="27" ry="18"/>
<text text-anchor="middle" x="251" y="-230.3" font-family="Times,serif" font-size="14.00">start</text>
</g>
<!-- DX&#45;&#45;start -->
<g id="edge11" class="edge">
<title>DX&#45;&#45;start</title>
<path fill="none" stroke="black" d="M276.94,-288.41C271.52,-277.25 264.41,-262.6 259,-251.47"/>
</g>
<!-- DX&#45;&#45;pj -->
<g id="edge12" class="edge">
<title>DX&#45;&#45;pj</title>
<path fill="none" stroke="black" d="M264.54,-294.06C248.94,-284.76 228,-270.06 215,-252 199.19,-230.03 191.27,-199.13 187.65,-180.12"/>
</g>
<!-- start&#45;&#45;pj -->
<g id="edge13" class="edge">
<title>start&#45;&#45;pj</title>
<path fill="none" stroke="black" d="M237,-218.15C225.8,-206.28 210.17,-189.7 198.98,-177.82"/>
</g>
<!-- start&#45;&#45;RW -->
<g id="edge14" class="edge">
<title>start&#45;&#45;RW</title>
<path fill="none" stroke="black" d="M245.93,-216.06C240.38,-197.99 230.94,-168.65 221,-144 207.77,-111.18 202.35,-103.89 187,-72 181.04,-59.63 174.2,-45.68 169.03,-35.21"/>
</g>
<!-- pj&#45;&#45;zg -->
<g id="edge15" class="edge">
<title>pj&#45;&#45;zg</title>
<path fill="none" stroke="black" d="M165.18,-149.44C142.95,-136.47 107.09,-115.55 84.84,-102.58"/>
</g>
<!-- pj&#45;&#45;RW -->
<g id="edge16" class="edge">
<title>pj&#45;&#45;RW</title>
<path fill="none" stroke="black" d="M182.11,-143.87C177.49,-116.58 168.52,-63.52 163.91,-36.19"/>
</g>
<!-- sl -->
<g id="node8" class="node">
<title>sl</title>
<ellipse fill="none" stroke="black" cx="65" cy="-18" rx="27" ry="18"/>
<text text-anchor="middle" x="65" y="-14.3" font-family="Times,serif" font-size="14.00">sl</text>
</g>
<!-- zg&#45;&#45;sl -->
<g id="edge17" class="edge">
<title>zg&#45;&#45;sl</title>
<path fill="none" stroke="black" d="M65,-71.7C65,-60.85 65,-46.92 65,-36.1"/>
</g>
<!-- zg&#45;&#45;RW -->
<g id="edge18" class="edge">
<title>zg&#45;&#45;RW</title>
<path fill="none" stroke="black" d="M82.61,-76.16C99.82,-63.61 125.89,-44.6 143.18,-31.99"/>
</g>
</g>
</svg>
